<?xml version="1.0" encoding="UTF-8"?>
<svg version="1.1" xmlns="http://www.w3.org/2000/svg" width="512" height="512">
<path d="M0 0 C0.79792969 0.73605469 1.59585937 1.47210938 2.41796875 2.23046875 C4.33982152 3.98904907 6.30147489 5.65819775 8.3125 7.3125 C12.17495931 10.61804657 15.40860732 14.32172967 18.625 18.25 C19.39972656 19.18714844 20.17445313 20.12429687 20.97265625 21.08984375 C37.0992952 41.04025998 46.37431072 63.2780909 44.625 89.25 C41.40330626 118.2159555 20.84223964 145.32298594 -1.375 163.25 C-2.39078125 164.08015625 -3.4065625 164.9103125 -4.453125 165.765625 C-41.27803573 195.52547543 -85.72053855 212.58879897 -132.375 219.25 C-133.14779297 219.36714355 -133.92058594 219.48428711 -134.71679688 219.60498047 C-200.3483295 229.24908996 -273.34281813 212.85719811 -326.96875 173.6484375 C-332.9772237 169.16040863 -338.65663182 164.35349471 -344.16796875 159.26953125 C-346.08982152 157.51095093 -348.05147489 155.84180225 -350.0625 154.1875 C-353.92495931 150.88195343 -357.15860732 147.17827033 -360.375 143.25 C-361.14972656 142.31285156 -361.92445313 141.37570312 -362.72265625 140.41015625 C-378.8492952 120.45974002 -388.12431072 98.2219091 -386.375 72.25 C-383.15330626 43.2840445 -362.59223964 16.17701406 -340.375 -1.75 C-338.85132813 -2.99523437 -338.85132813 -2.99523437 -337.296875 -4.265625 C-300.47196427 -34.02547543 -256.02946145 -51.08879897 -209.375 -57.75 C-208.60220703 -57.86714355 -207.82941406 -57.98428711 -207.03320312 -58.10498047 C-135.64408848 -68.59512766 -54.11631413 -48.66399376 0 0 Z M-343.91015625 16.97265625 C-345.93702758 18.84534403 -347.9943532 20.62397846 -350.125 22.375 C-353.96869154 25.65531358 -357.17819273 29.34564987 -360.375 33.25 C-361.53708984 34.65572266 -361.53708984 34.65572266 -362.72265625 36.08984375 C-372.93784805 48.7271533 -383.46767878 64.73730122 -385.375 81.25 C-381.92954273 100.48487562 -369.44531619 118.09024342 -356.39453125 132.078125 C-354.62415862 133.98204605 -352.96114232 135.92891151 -351.3125 137.9375 C-348.00610106 141.79944564 -344.29969332 145.02861173 -340.375 148.25 C-339.63999268 148.85352295 -339.63999268 148.85352295 -338.89013672 149.46923828 C-283.76007432 194.45122986 -211.58231198 211.92982123 -141.39379883 205.42529297 C-89.20026852 199.74118992 -36.68583239 180.69814235 2.16015625 144.52734375 C4.18702758 142.65465597 6.2443532 140.87602154 8.375 139.125 C12.21869154 135.84468642 15.42819273 132.15435013 18.625 128.25 C19.39972656 127.31285156 20.17445313 126.37570312 20.97265625 125.41015625 C31.18784805 112.7728467 41.71767878 96.76269878 43.625 80.25 C40.17954273 61.01512438 27.69531619 43.40975658 14.64453125 29.421875 C12.87415862 27.51795395 11.21114232 25.57108849 9.5625 23.5625 C6.25610106 19.70055436 2.54969332 16.47138827 -1.375 13.25 C-1.86500488 12.84765137 -2.35500977 12.44530273 -2.85986328 12.03076172 C-77.55795312 -48.91727102 -186.92421075 -61.43861616 -343.91015625 16.97265625 Z " fill="#888888" transform="translate(427.375,175.75)"/>
<path d="M0 0 C17.00161408 14.54211092 26.3051029 34.69092091 29.03125 56.69140625 C30.52121342 81.64829351 22.52592118 103.52234897 6.34375 122.44140625 C-8.79373047 138.30194049 -29.49207747 147.58832132 -51.37109375 148.89453125 C-76.23857676 149.22426583 -98.3031015 140.71678254 -116.375 123.46875 C-132.49784071 106.20468412 -140.41197449 84.36619196 -140.1796875 60.7890625 C-139.29222306 37.83002871 -128.69211951 16.30929283 -111.96875 0.69140625 C-78.85117649 -27.68018429 -33.49790293 -26.04902714 0 0 Z M-105.96875 16.69140625 C-106.48953125 17.20703125 -107.0103125 17.72265625 -107.546875 18.25390625 C-115.9885529 27.07583991 -121.65373672 38.75711364 -123.96875 50.69140625 C-124.195625 51.80515625 -124.4225 52.91890625 -124.65625 54.06640625 C-126.37553047 74.01005969 -122.10462394 92.47513878 -109.32421875 108.16796875 C-107.28789873 110.45662813 -105.21522968 112.60538941 -102.96875 114.69140625 C-102.453125 115.2121875 -101.9375 115.73296875 -101.40625 116.26953125 C-92.58431634 124.71120915 -80.90304261 130.37639297 -68.96875 132.69140625 C-67.298125 133.03171875 -67.298125 133.03171875 -65.59375 133.37890625 C-45.65009656 135.09818672 -27.18501747 130.82728019 -11.4921875 118.046875 C-9.20352812 116.01055498 -7.05476684 113.93788593 -4.96875 111.69140625 C-4.44796875 111.17578125 -3.9271875 110.66015625 -3.390625 110.12890625 C5.0510529 101.30697259 10.71623672 89.62569886 13.03125 77.69140625 C13.258125 76.57765625 13.485 75.46390625 13.71875 74.31640625 C15.43803047 54.37275281 11.16712394 35.90767372 -1.61328125 20.21484375 C-3.64960127 17.92618437 -5.72227032 15.77742309 -7.96875 13.69140625 C-8.484375 13.170625 -9 12.64984375 -9.53125 12.11328125 C-18.35318366 3.67160335 -30.03445739 -1.99358047 -41.96875 -4.30859375 C-43.0825 -4.53546875 -44.19625 -4.76234375 -45.34375 -4.99609375 C-68.43824386 -6.98699839 -89.95799569 -0.55094454 -105.96875 16.69140625 Z " fill="#888888" transform="translate(311.96875,192.30859375)"/>
<path d="M0 0 C7.92078743 5.11550855 13.4246282 11.14418964 16.0625 20.33203125 C17.06981307 29.66724659 16.04340017 36.93420051 10.44921875 44.51953125 C4.89238013 51.22223682 -1.19150452 55.71201166 -10.05078125 56.66796875 C-20.73396341 56.79841053 -27.39447254 54.41675765 -35.21484375 47.125 C-41.91914901 40.14704963 -43.42759862 32.97757761 -43.24609375 23.58203125 C-42.44507304 15.14596503 -37.92415653 9.08391694 -31.9375 3.33203125 C-22.80445472 -3.75073856 -10.42931171 -5.42554267 0 0 Z " fill="#888888" transform="translate(269.9375,229.66796875)"/>
</svg>
